<?xml version="1.0" encoding="UTF-8" standalone="no"?>
<!-- Created with Inkscape (http://www.inkscape.org/) -->

<svg
   width="512"
   height="512"
   viewBox="0 0 512 512"
   version="1.1"
   id="svg5"
   inkscape:version="1.2.2 (b0a8486541, 2022-12-01)"
   sodipodi:docname="logo.svg"
   xmlns:inkscape="http://www.inkscape.org/namespaces/inkscape"
   xmlns:sodipodi="http://sodipodi.sourceforge.net/DTD/sodipodi-0.dtd"
   xmlns="http://www.w3.org/2000/svg"
   xmlns:svg="http://www.w3.org/2000/svg">
  <sodipodi:namedview
     id="namedview7"
     pagecolor="#ffffff"
     bordercolor="#666666"
     borderopacity="1.0"
     inkscape:showpageshadow="2"
     inkscape:pageopacity="0.0"
     inkscape:pagecheckerboard="0"
     inkscape:deskcolor="#d1d1d1"
     inkscape:document-units="px"
     showgrid="false"
     inkscape:zoom="2.8284271"
     inkscape:cx="222.73864"
     inkscape:cy="245.71961"
     inkscape:window-width="3840"
     inkscape:window-height="2069"
     inkscape:window-x="0"
     inkscape:window-y="0"
     inkscape:window-maximized="1"
     inkscape:current-layer="layer1" />
  <defs
     id="defs2">
    <inkscape:path-effect
       effect="fillet_chamfer"
       id="path-effect4645"
       is_visible="true"
       lpeversion="1"
       nodesatellites_param="F,1,0,1,0,0.31,0,1 @ F,1,0,1,0,0.31,0,1 @ F,1,0,1,0,0.31,0,1 @ F,1,0,1,0,0.31,0,1"
       unit="px"
       method="auto"
       mode="F"
       radius="31"
       chamfer_steps="1"
       flexible="true"
       use_knot_distance="true"
       apply_no_radius="true"
       apply_with_radius="true"
       only_selected="false"
       hide_knots="false" />
    <linearGradient
       id="linearGradient3870"
       inkscape:swatch="solid">
      <stop
         style="stop-color:#000000;stop-opacity:1;"
         offset="0"
         id="stop3868" />
    </linearGradient>
    <linearGradient
       id="linearGradient2911"
       inkscape:swatch="solid">
      <stop
         style="stop-color:#000000;stop-opacity:1;"
         offset="0"
         id="stop2909" />
    </linearGradient>
  </defs>
  <g
     inkscape:label="Layer 1"
     inkscape:groupmode="layer"
     id="layer1">
    <rect
       style="fill:#b73737;fill-opacity:1;stroke:#000000;stroke-width:1.131;stroke-dasharray:none"
       id="rect111"
       width="510.86871"
       height="510.86871"
       x="0.56564474"
       y="0.56564474"
       inkscape:path-effect="#path-effect4645"
       d="M 158.93495,0.56564474 H 353.06506 A 158.3693,158.3693 45 0 1 511.43436,158.93495 v 194.13011 a 158.3693,158.3693 135 0 1 -158.3693,158.3693 H 158.93495 A 158.3693,158.3693 45 0 1 0.56564474,353.06506 V 158.93495 A 158.3693,158.3693 135 0 1 158.93495,0.56564474 Z" />
    <path
       style="fill:#000000;fill-opacity:1;stroke:#000000;stroke-width:1.131;stroke-dasharray:none"
       id="path6613"
       d="m 86.153325,299.81276 c -0.427567,-0.92765 -0.47382,-1.98833 -0.653474,-2.99385 -0.538789,-3.01561 -0.918992,-6.3864 -1.194063,-9.41288 -0.314733,-3.46285 -0.652372,-8.70335 -0.780747,-12.13762 -0.08041,-2.15104 -0.09418,-4.30406 -0.141263,-6.45608 0.168011,-7.31075 0.526645,-14.71029 2.133076,-21.87308 0.778347,-3.47051 1.16861,-4.23015 2.351018,-7.46029 0.474923,-0.9729 0.87309,-1.98718 1.424768,-2.9187 1.695162,-2.86233 3.848804,-4.98902 6.602888,-6.82377 0.95949,-0.63921 3.964285,-2.35617 2.976344,-1.76188 -3.127853,1.88153 -6.264087,3.74909 -9.396131,5.62364 4.107316,-1.85816 8.480349,-2.98322 12.932039,-3.62512 2.76133,-0.39817 4.23567,-0.46786 7.01261,-0.68475 9.96587,-0.43075 19.80611,-2.11894 29.61335,-3.83341 4.84977,-0.9357 5.99741,-1.10598 10.72905,-2.21383 1.6726,-0.39162 3.35732,-0.74448 5.00196,-1.24059 2.0292,-0.61212 4.02639,-1.32991 6.00845,-2.08074 5.67126,-2.14835 8.83706,-3.70938 14.50279,-6.28332 10.96905,-5.09383 21.74031,-10.61234 32.82458,-15.45855 2.73224,-1.19458 5.46541,-2.39179 8.24715,-3.46606 2.96046,-1.14328 5.98165,-2.12259 8.97248,-3.18389 3.05987,-0.89812 6.0844,-1.92682 9.17961,-2.69435 12.64781,-3.13633 25.63608,-4.61221 38.60335,-5.60778 13.49451,-1.03606 21.68716,-1.15994 35.43855,-1.63188 27.7952,-0.47771 55.60749,-0.58865 83.39954,0.16128 3.64481,0.0984 7.28824,0.24228 10.93236,0.36342 11.98367,0.46155 23.95228,1.22447 35.89204,2.3437 l 11.79608,-8.44649 v 0 c -12.432,-0.57339 -24.86518,-1.1409 -37.3087,-1.40212 -3.75364,-0.048 -7.50704,-0.12008 -11.2609,-0.14389 -10.64511,-0.0675 -17.79049,0.0216 -28.62325,0.0876 -12.25787,0.0747 -24.51611,0.088 -36.77381,0.18715 -6.32876,0.0512 -12.65705,0.14936 -18.98558,0.22404 -16.66199,0.31854 -18.80473,0.18477 -34.86803,1.13067 -4.93236,0.29044 -9.8683,0.56837 -14.78494,1.05735 -6.15838,0.61248 -16.89036,2.23493 -23.05876,3.66533 -3.10938,0.72104 -6.13872,1.75176 -9.20809,2.62763 -2.97942,1.01814 -5.99296,1.94143 -8.93827,3.0544 -2.80431,1.0597 -5.55169,2.26565 -8.3013,3.46012 -11.05549,4.80266 -21.79843,10.27585 -32.71663,15.37339 -6.49484,2.92791 -12.9899,6.01753 -19.81471,8.12971 -1.64674,0.50964 -3.33431,0.87714 -5.00849,1.28773 -5.22056,1.28032 -5.41022,1.25859 -10.78318,2.34056 -3.37059,0.59926 -8.20535,1.48685 -11.59699,1.97827 -5.81207,0.84214 -11.66937,1.39543 -17.5345,1.67665 -3.54193,0.23451 -7.08328,0.47141 -10.58528,1.08722 -3.31037,0.58211 -6.53681,1.52664 -9.66885,2.74156 -5.096279,2.8666 -10.225927,5.67467 -15.288832,8.59981 -1.923688,1.11143 -3.976859,2.58641 -5.547477,4.17031 -2.297816,2.31725 -3.912861,5.17926 -5.032498,8.21962 -1.01841,3.18966 -1.441393,4.20099 -2.084354,7.59588 -0.282148,1.48976 -0.481881,2.99477 -0.663285,4.50012 -0.696384,5.77885 -0.964229,11.60651 -0.996697,17.42387 0.208576,10.6099 0.599881,21.24396 2.01518,31.77217 l 18.75328,5.41278 z"
       sodipodi:nodetypes="sssscscssscsccssscsscsscscccscssscssscsscsscscscsscsscccs" />
    <path
       style="fill:#000000;fill-opacity:1;stroke:#000000;stroke-width:1.131;stroke-dasharray:none"
       id="path6615"
       d="m 67.088835,301.81864 c 1.743514,3.48663 3.809406,6.77206 6.115685,9.90954 3.356059,4.35571 7.511992,8.0323 11.8918,11.32922 1.17255,0.88264 2.380944,1.71663 3.571416,2.57495 5.990573,3.81435 12.193014,7.35451 18.731334,10.1531 4.53509,1.94116 6.15088,2.35576 10.90787,3.92363 2.12378,0.58399 4.23402,1.21966 6.37133,1.75196 4.63682,1.15482 10.28535,2.28201 14.95759,3.1444 8.73397,1.61209 17.50769,2.84357 26.30744,4.02791 18.03878,2.28403 36.14402,3.97367 54.20806,6.0369 10.9886,1.37467 21.96117,2.8969 32.90541,4.59029 17.4904,2.70628 6.97643,1.26522 24.38248,3.87597 3.8342,0.57509 7.67583,1.09954 11.51374,1.64932 14.06066,1.68289 28.25031,2.78952 42.40633,1.72971 8.52737,-0.63842 10.75291,-1.2373 19.23446,-2.70348 3.23042,-0.70335 6.46735,-1.37745 9.69126,-2.11006 12.66308,-2.87759 8.90175,-2.22366 21.61748,-5.05127 6.84432,-1.52197 13.66416,-2.92057 20.55609,-4.20141 2.81509,-0.52318 5.6404,-0.98977 8.46061,-1.48465 5.69223,-1.00364 11.41617,-1.799 17.14716,-2.53954 0,0 11.34521,-8.4915 11.34521,-8.4915 v 0 c -5.96976,0.93132 -11.93668,1.88434 -17.8721,3.01897 -9.84332,1.85349 -19.67098,3.77684 -29.4522,5.93953 -10.36409,2.29156 -20.66896,4.85093 -31.05313,7.05424 -8.28982,1.47278 -10.78084,2.10929 -19.13494,2.83128 -14.19351,1.22664 -28.45974,0.36813 -42.57829,-1.30831 -12.30362,-1.65261 -11.27671,-1.43668 -23.75042,-3.43571 -8.00703,-1.2832 -15.98707,-2.73274 -23.99887,-3.98582 -3.50216,-0.54775 -7.01319,-1.03763 -10.52356,-1.53011 -3.41526,-0.47914 -6.83536,-0.92313 -10.25304,-1.3847 -3.27443,-0.42591 -6.54437,-0.88783 -9.82328,-1.27774 -2.96843,-0.35299 -5.94563,-0.62802 -8.9175,-0.9508 -2.95041,-0.32045 -5.8979,-0.66771 -8.84931,-0.97891 -8.82833,-0.93088 -17.67366,-1.71691 -26.473,-2.9093 -15.78796,-2.18281 -31.63878,-4.51506 -46.94181,-9.10055 -4.48853,-1.50037 -6.41731,-2.04657 -10.72461,-3.86013 -6.45132,-2.71628 -12.59546,-6.13876 -18.40093,-10.04016 -1.164943,-0.84553 -2.355547,-1.6568 -3.494834,-2.5366 -4.211366,-3.25218 -8.168435,-6.92993 -11.335116,-11.22054 -2.2111,-3.07643 -4.341226,-6.23188 -5.749928,-9.77275 0,0 -12.995887,7.33312 -12.995887,7.33312 z" />
    <path
       style="fill:#000000;fill-opacity:1;stroke:#000000;stroke-width:1.131;stroke-dasharray:none"
       id="path6617"
       d="m 196.45026,351.69749 c -1.86082,3.28538 -6.15414,13.84986 -8.17866,17.03388 -1.96625,2.85103 -3.46263,5.97237 -4.97835,9.07541 -0.3457,0.71865 -0.68226,1.44178 -1.03711,2.15596 -1.3699,2.75707 -0.85578,1.60666 -2.25845,4.34397 -1.06611,2.0805 -2.0463,4.20372 -3.06625,6.3069 -1.21928,2.66836 -2.50142,5.32702 -3.40906,8.12432 -0.17464,0.53821 -0.30665,1.08933 -0.45997,1.63399 -0.13741,0.54319 -0.27238,1.087 -0.41224,1.62956 -0.13572,0.52644 -0.2931,1.04747 -0.41449,1.57739 -0.56736,2.47675 -0.86582,5.00695 -1.2145,7.5204 -0.3639,2.58406 -0.83534,5.15177 -1.20724,7.73418 -0.1032,0.70012 -0.17203,1.40417 -0.23383,2.10885 l 13.41976,-6.69443 v 0 c 0.0555,-0.66949 0.11578,-1.33862 0.20499,-2.00467 0.34584,-2.55071 0.68337,-5.10235 1.0335,-7.6525 0.48525,-3.56155 1.10285,-7.09578 2.17726,-10.53501 1.06106,-3.25997 2.41458,-6.40873 3.86872,-9.51193 2.03192,-4.31401 4.2172,-8.54755 6.38765,-12.79318 1.55849,-3.07643 3.21754,-6.09523 5.12242,-8.97394 2.04622,-3.24632 4.13524,-6.46781 6.09229,-9.76879 z"
       sodipodi:nodetypes="cccsscscssccccscccccccc" />
    <path
       style="fill:#000000;fill-opacity:1;stroke:#000000;stroke-width:1.131;stroke-dasharray:none"
       id="path6619"
       d="m 172.88858,408.90078 c 5.01063,-1.38352 10.04411,-2.67906 15.05705,-4.05496 2.57008,-0.7054 5.15781,-1.35148 7.70403,-2.13865 7.82163,-2.41808 13.03567,-4.45611 20.80712,-7.31009 17.54904,-6.74024 34.81056,-14.188 52.13672,-21.47224 2.77202,-1.15862 5.54648,-2.31106 8.33051,-3.44051 l 11.51562,-9.08128 v 0 c -2.97106,1.2653 -5.19082,1.42124 -8.14987,2.71439 -17.57534,7.70141 -35.84082,16.67766 -53.8061,23.44418 -8.09788,2.93867 -12.06744,4.52172 -20.1461,6.93655 -7.12736,2.13047 -14.42015,3.65976 -21.64134,5.42411 z"
       sodipodi:nodetypes="cssccccsccscc" />
    <path
       style="fill:#000000;fill-opacity:1;stroke:#000000;stroke-width:1.131;stroke-dasharray:none"
       id="path6621"
       d="m 70.10098,258.52394 c -3.290306,-0.60479 -6.585316,-1.17244 -9.908979,-1.55827 -2.546806,-0.28804 -5.10175,-0.0636 -7.556352,0.675 -0.549857,0.16546 -1.086083,0.37324 -1.629124,0.55985 -6.153407,2.56387 -11.842898,6.42477 -17.519179,9.71068 -1.347223,0.77988 -2.651156,1.63105 -3.939735,2.50291 -1.43988,1.08782 -2.806158,2.3165 -3.942623,3.72538 -0.635427,0.78775 -0.76137,1.07034 -1.266024,1.92609 -0.594301,1.31829 -1.264637,2.96854 -1.101661,4.45645 0.04225,0.38573 0.158134,0.7598 0.237202,1.1397 0.829109,2.39755 2.000706,4.68141 3.61305,6.65093 0.316355,0.38644 0.666038,0.74434 0.999057,1.11651 1.979209,2.01499 4.447124,3.38026 7.005849,4.50926 2.591919,1.03807 5.30877,1.69197 8.028081,2.29229 2.916855,0.67572 5.864436,1.19178 8.81457,1.69495 1.972321,0.32923 13.255905,3.38925 15.243154,3.60549 0.963027,-3.8173 12.451727,-2.19413 2.889081,-11.4519 v 0 c -2.905936,-1.55206 -3.991169,-0.37434 -5.969963,-0.70254 -2.955916,-0.42884 -5.907731,-0.88765 -8.819981,-1.5607 -2.629606,-0.64402 -5.287651,-1.19081 -7.836007,-2.12686 -2.423309,-0.94252 -4.780381,-2.14507 -6.685086,-3.94707 -1.957195,-2.08673 -3.393399,-4.21637 -4.096433,-7.0318 -0.01548,-0.29405 -0.05509,-0.58783 -0.04644,-0.88216 0.03955,-1.345 0.687583,-2.62474 1.365799,-3.74572 1.462406,-2.01224 3.281149,-3.71256 5.375763,-5.06264 1.201616,-0.77133 1.219055,-0.79378 2.477901,-1.55365 0.469533,-0.28343 1.890427,-1.11296 1.414283,-0.84079 -3.686979,2.10754 -7.365565,4.22974 -11.046971,6.347 -0.536713,0.30868 1.064056,-0.63466 1.612886,-0.92124 0.513645,-0.26821 1.048077,-0.49457 1.572115,-0.74186 0.511755,-0.21598 1.014336,-0.45514 1.535265,-0.64795 2.308187,-0.85433 4.752135,-1.28606 7.212992,-1.12087 3.259579,0.28787 21.877356,2.11678 25.067028,2.86145 -1.033174,-3.29264 23.777032,-15.19117 -3.099523,-9.87792 z"
       sodipodi:nodetypes="scscscscscsccccccscccccsccsssscscccs" />
    <path
       style="fill:#000000;fill-opacity:1;stroke:#000000;stroke-width:1.131;stroke-dasharray:none"
       id="path6623"
       d="m 59.923603,259.10538 c 0.926824,-4.70198 2.069512,-9.35973 3.199533,-14.01612 0.534584,-2.20282 1.036565,-4.41379 1.602857,-6.60867 0.64043,-2.48223 1.344647,-4.94757 2.01697,-7.42135 3.077683,-11.1601 6.684835,-22.25237 11.83919,-32.64969 3.503378,-7.06699 4.660126,-8.47456 8.860291,-14.99947 4.373786,-5.90014 9.291572,-11.35727 14.766346,-16.25198 3.47829,-3.10976 7.21713,-5.88213 10.99573,-8.60737 0.76952,-0.5111 1.53903,-1.02221 2.30855,-1.53331 0,0 -13.55023,5.32472 -13.55023,5.32472 v 0 c -0.70625,0.50428 -1.41251,1.00857 -2.118766,1.51285 -3.564069,2.71636 -7.085539,5.47648 -10.356935,8.54853 -5.296541,4.9738 -10.062004,10.46618 -14.270483,16.39124 -3.940301,6.35026 -5.36441,8.2925 -8.686579,15.13244 -2.583165,5.31843 -4.848705,11.17378 -6.848256,16.72904 -1.011718,2.81081 -1.985727,5.63612 -2.888061,8.48393 -0.809412,2.55454 -1.497254,5.14602 -2.245881,7.71903 -2.757776,9.5701 -5.45561,19.15724 -8.035703,28.77672 0,0 13.411427,-6.53054 13.411427,-6.53054 z" />
    <path
       style="fill:#000000;fill-opacity:1;stroke:#000000;stroke-width:1.131;stroke-dasharray:none"
       id="path6631"
       d="m 45.085754,296.10363 c 0.08852,5.67578 -0.326646,14.39498 -0.486592,20.06803 0.06703,5.14577 0.08333,10.30312 0.382277,15.44274 0.152098,2.61493 0.385019,4.79334 0.634471,7.39607 0.40185,3.3615 0.717046,6.74135 1.275291,10.0826 0.479375,2.8692 1.160413,5.70829 1.799036,8.5448 0.321949,1.34931 0.801832,3.4717 1.223867,4.79377 0.333677,1.04528 0.733923,2.06814 1.103048,3.10143 1.10549,3.09461 2.211596,6.189 3.317458,9.28348 1.154639,3.72765 2.728457,7.29536 4.218461,10.89433 0.158785,0.36155 6.979985,9.10776 7.13877,9.4693 l 1.355409,-4.37839 2.801798,-12.22217 c 0.08495,-0.37058 0.27849,-1.23629 0.109118,-1.57667 -1.602846,-3.50737 -1.603124,-5.60952 -2.945026,-9.22623 -2.158385,-5.573 -4.171699,-11.20369 -5.509666,-17.03913 -0.663248,-2.78643 -1.337216,-5.57293 -1.828479,-8.39647 -0.574983,-3.30471 -0.940552,-6.64293 -1.327834,-9.97303 -0.737632,-7.54762 -1.138579,-15.1336 -0.853559,-22.71885 0.175209,-5.73553 0.194707,-11.48008 0.604409,-17.20511 z"
       sodipodi:nodetypes="ccscscssccccscccscccc" />
    <path
       style="fill:#000000;fill-opacity:1;stroke:#000000;stroke-width:1.131;stroke-dasharray:none"
       id="path6753"
       d="m 142.19812,224.57136 c 0.15274,0.0713 -1.95385,0.0385 -1.80239,0.1125 0.1858,0.0907 2.62624,0.29508 2.81404,0.38159 0.99115,0.45656 2.02465,0.82637 3.04552,1.20954 1.10522,0.41486 2.23497,0.74718 3.38362,1.01465 1.41697,0.29458 2.8617,0.38715 4.30345,0.46139 1.87279,0.15315 3.75048,0.19913 5.62748,0.26472 0.80983,0.0283 2.95717,0.12019 3.76143,0.15406 0.64502,0.0283 1.2898,0.0632 1.93508,0.0849 0.782,0.0263 1.56449,0.0357 2.34659,0.059 3.35099,0.0998 6.70009,0.24224 10.05151,0.33083 0.83943,0.0154 1.67872,0.0482 2.51829,0.0461 0.96532,-0.002 1.93038,-0.0336 2.89536,-0.0596 1.92343,-0.0518 3.75444,-0.11698 5.67329,-0.24659 2.06323,-0.13937 2.93823,-0.24699 4.94407,-0.45502 4.26591,-0.54902 8.40516,-1.74834 12.53709,-2.90087 0.68041,-0.19456 1.36583,-0.37236 2.04123,-0.58367 0.8276,-0.25893 1.64657,-0.54485 2.46665,-0.8267 1.89987,-0.65294 3.46562,-1.21597 5.34489,-1.9363 2.13802,-0.8195 3.06808,-1.21546 5.15686,-2.07353 2.03972,-0.85824 4.05852,-1.78596 5.97575,-2.89583 4.42835,-2.56356 10.28302,-5.41849 14.83515,-8.84555 0.4011,-0.30197 0.78892,-0.62118 1.18339,-0.93176 2.13569,-1.81994 4.25379,-3.66231 6.33758,-5.54173 0.43131,-0.39124 1.5837,-1.4301 2.00318,-1.83645 0.34647,-0.33564 0.67915,-0.68522 1.01824,-1.02831 0.11039,-0.1117 1.95209,-1.97794 2.06839,-2.10032 0.34592,-0.36399 0.67976,-0.73926 1.01965,-1.10888 0.92525,-1.10527 1.87797,-2.18964 2.77661,-3.31708 0.67203,-0.84313 1.30327,-1.71902 1.93058,-2.59551 0.59371,-0.88125 1.17956,-1.76711 1.75514,-2.66052 0.41962,-0.80172 0.91211,-1.55764 1.43453,-2.29526 0.44451,-0.59243 0.90661,-1.17892 1.25342,-1.83553 0.10791,-0.21837 0.19887,-0.44775 0.31745,-0.66084 0.10954,-0.19686 0.15075,-0.20136 0.23974,-0.41517 0.0386,-0.0928 0.0632,-0.19096 0.0948,-0.28644 0.1332,-0.24585 0.23022,-0.51053 0.35505,-0.76002 0.10069,-0.20125 0.18318,-0.33531 0.24739,-0.55455 0.23433,-0.21942 -0.0622,0.0785 0.1326,-0.18912 0.018,-0.0247 0.0523,-0.0333 0.0725,-0.0562 0.10176,-0.1157 0.11977,-0.29177 0.15565,-0.43466 0.0183,-0.2396 0.0577,-0.47667 0.0838,-0.71539 0.008,-0.0705 0.002,-0.14321 0.0207,-0.21171 0.0111,-0.0417 0.0438,-0.0743 0.0657,-0.11146 l -13.54555,6.50209 v 0 c -0.0122,0.2859 -0.0864,0.56659 -0.28308,0.78447 -0.0542,0.0733 -0.11992,0.13804 -0.16991,0.21426 -0.0984,0.14998 -0.12847,0.34568 -0.17486,0.51439 -0.22785,0.38142 -0.35017,0.82015 -0.57265,1.20616 -0.26811,0.4001 -0.45323,0.84495 -0.72958,1.24013 -0.3945,0.56354 -0.7753,1.13757 -1.15725,1.7099 -0.4984,0.77601 -0.94618,1.58252 -1.45798,2.35004 -0.51706,0.82797 -1.00018,1.67605 -1.53271,2.49432 -1.32825,1.96983 -2.82087,3.82377 -4.43881,5.5639 -2.01167,2.06895 -4.05347,4.107 -6.23605,5.99793 -2.07595,1.84451 -4.14969,3.69522 -6.32663,5.42095 -0.3788,0.28291 -0.75137,0.57437 -1.13641,0.84872 -0.41227,0.29377 -1.69735,1.10135 -1.25497,0.85524 3.50134,-1.94797 6.9495,-3.99013 10.43662,-5.96344 0.61194,-0.34629 -1.19827,0.73664 -1.81066,1.08214 -1.94221,1.09579 -2.31218,1.22107 -4.37487,2.19055 -0.8435,0.36479 -1.68243,0.74033 -2.5305,1.09439 -3.95024,1.64916 -7.98999,3.08775 -12.10955,4.25344 -2.05386,0.58544 -4.10958,1.15184 -6.1759,1.69158 -2.1014,0.5489 -4.20301,1.10847 -6.35077,1.45242 -0.80481,0.12557 -1.60688,0.27017 -2.41443,0.3767 -2.75063,0.36287 -5.53577,0.56484 -8.30969,0.60975 -0.91074,0.0148 -1.82173,-0.007 -2.73254,-0.0167 -0.83637,-0.009 -1.67262,-0.0276 -2.50893,-0.0414 -2.50299,-0.0552 -5.00614,-0.10871 -7.50681,-0.2361 -3.61269,-0.18404 -1.17673,-0.084 -4.59453,-0.32325 -0.63835,-0.0447 -1.27776,-0.0726 -1.91664,-0.10893 -1.49053,-0.0687 -2.17554,-0.0879 -3.65312,-0.20433 -0.53643,-0.0423 -1.07134,-0.10215 -1.60736,-0.14938 -3.23336,-0.28489 0.42589,0.0445 -2.55826,-0.19129 -0.37839,-0.0299 -0.75591,-0.07 -1.13387,-0.10494 -1.31795,-0.17801 -2.64008,-0.32399 -3.95403,-0.52752 -1.14582,-0.17471 -2.28234,-0.42632 -3.39447,-0.75249 -1.25638,-0.3989 -3.72735,1.83254 -4.7852,1.01633 l -11.41905,5.50126 z"
       sodipodi:nodetypes="csssccscssccssccssscssccssscsccccsscscsccccccscscccccccccsssscscscssccsscssscccccc" />
    <circle
       id="path6755"
       style="fill:#000000;stroke:#000000"
       cx="212.50018"
       cy="219.25565"
       r="0.071172334" />
    <path
       style="fill:#262626;stroke-width:48.3781"
       d="m 251.02981,185.30548 c -18.36105,2.41257 -35.91173,8.88026 -52.51431,16.90457 -10.75462,5.20116 -21.6381,10.1461 -32.3751,15.37444 -1.47952,1.13295 0.35368,2.73997 1.71805,2.3858 11.32317,0.54017 22.81114,1.68203 34.16279,0.4813 8.76144,-1.30371 17.26247,-4.04594 25.55084,-7.10394 5.3436,-2.10516 9.17016,-6.65282 13.25943,-10.49688 4.65275,-4.70164 8.47685,-10.17564 11.59111,-15.99366 0.26028,-0.89168 -0.51759,-1.65209 -1.39281,-1.55163 z"
       id="path488" />
    <path
       style="fill:#262626;stroke-width:48.3781"
       d="m 47.929272,265.20786 c -1.208912,0.12256 -2.253332,0.25985 -3.447836,0.18299 -3.994254,0.39946 -7.171566,3.96351 -8.027457,7.725 -0.244234,5.08483 3.922655,9.26089 8.076485,11.57335 6.498182,2.91244 13.63049,4.38893 20.708424,4.95113 1.891311,-0.16569 3.688131,0.40542 5.474553,0.8314 1.97672,-0.84689 0.69255,-3.57462 1.019572,-5.26102 -0.181664,-5.59182 -0.07958,-11.26125 -0.524327,-16.80179 -1.22738,-1.48541 -3.766926,-0.90176 -5.552747,-1.37915 -5.905536,-0.6172 -11.804102,-1.41547 -17.726667,-1.82191 z"
       id="path490" />
    <path
       style="fill:#501616;stroke-width:48.3781"
       d="m 449.45546,177.82355 c -3.87746,1.12913 -6.80541,4.2941 -10.1898,6.37331 -2.38272,0.61486 -5.18504,-0.30888 -7.73698,-0.3088 -34.20715,-3.00682 -68.58501,-2.17922 -102.88214,-2.30659 -21.48571,-0.0511 -42.98297,0.46841 -64.39231,2.37747 -2.37758,2.60723 -3.90128,6.08441 -6.34409,8.75175 -5.68657,6.73001 -12.18708,12.84194 -19.55403,17.71218 -8.82306,5.39188 -18.04102,10.24939 -27.94281,13.30875 -8.61004,2.84073 -17.52993,5.09377 -26.6178,4.76392 -11.39287,-0.0228 -22.81576,0.0977 -34.13469,-1.29881 -2.63553,-0.23047 -4.98466,-1.7769 -7.47363,-2.22521 -11.75942,2.08732 -23.54562,3.90694 -35.46308,4.62757 -4.83023,0.60892 -9.970716,0.90849 -14.353442,3.17991 -5.260239,5.46562 -6.824725,13.3604 -7.883528,20.61271 -1.592913,14.34638 -1.034327,28.91319 1.023763,43.18366 0.971502,4.56888 3.144408,8.81603 5.377188,12.88398 3.109513,4.12984 7.728274,6.79369 11.843669,9.80614 18.3319,12.22662 40.41805,16.50585 61.80207,19.95749 27.32033,4.14749 54.97591,5.75923 82.25142,10.11179 23.67469,3.46714 47.21107,8.39658 71.15109,9.69177 13.89889,0.0786 27.94371,0.21548 41.57972,-2.88946 24.2844,-5.23896 48.43333,-11.1961 72.96483,-15.13313 2.02391,-0.58437 4.46985,-0.28325 6.2478,-1.41384 4.09511,-51.0539 7.85964,-102.15128 11.7395,-153.22854 -0.0928,-2.62412 0.92931,-5.41154 0.21987,-7.95936 -0.25558,-0.41485 -0.75674,-0.62068 -1.23259,-0.57866 z"
       id="path1343" />
  </g>
</svg>
